<svg xmlns="http://www.w3.org/2000/svg" width="320" height="90" fill="none" viewBox="0 0 320 90">
  <defs>
    <linearGradient id="fade" x1="0%" y1="0%" x2="100%" y2="0%">
      <stop offset="0%"   stop-color="white" stop-opacity="0"/>
      <stop offset="25%"  stop-color="white" stop-opacity="0"/>
      <stop offset="65%"  stop-color="white" stop-opacity="1"/>
      <stop offset="100%" stop-color="white" stop-opacity="1"/>
    </linearGradient>
    <mask id="m" maskUnits="userSpaceOnUse" x="0" y="0" width="320" height="90">
      <rect width="320" height="90" fill="url(#fade)"/>
    </mask>

    <clipPath id="c1"><polygon points="320,0  200,0  248,35"/></clipPath>
    <clipPath id="c2"><polygon points="320,0  248,35 320,48"/></clipPath>
    <clipPath id="c3"><polygon points="200,0  148,0  175,40 248,35"/></clipPath>
    <clipPath id="c4"><polygon points="148,0  105,12 138,52 175,40"/></clipPath>
    <clipPath id="c5"><polygon points="248,35 175,40 192,72 285,60"/></clipPath>
    <clipPath id="c6"><polygon points="320,48 248,35 285,60 320,72"/></clipPath>
    <clipPath id="c7"><polygon points="105,12  72,28  112,65 138,52"/></clipPath>
    <clipPath id="c8"><polygon points="138,52 112,65 128,90 192,72 175,40"/></clipPath>
    <clipPath id="c9"><polygon points="192,72 128,90 230,90 285,60"/></clipPath>
    <clipPath id="c10"><polygon points="285,60 230,90 320,90 320,72"/></clipPath>
    <clipPath id="c11"><polygon points="72,28   42,45  75,78  112,65"/></clipPath>
    <clipPath id="c12"><polygon points="112,65  75,78  90,90  128,90"/></clipPath>
  </defs>

  <g mask="url(#m)">
    <!-- Shard outlines — white -->
    <g stroke="#ffffff" stroke-width="0.9" fill="none" stroke-linejoin="round" opacity="0.45">
      <polygon points="320,0  200,0  248,35"/>
      <polygon points="320,0  248,35 320,48"/>
      <polygon points="200,0  148,0  175,40 248,35"/>
      <polygon points="148,0  105,12 138,52 175,40"/>
      <polygon points="248,35 175,40 192,72 285,60"/>
      <polygon points="320,48 248,35 285,60 320,72"/>
      <polygon points="105,12  72,28  112,65 138,52"/>
      <polygon points="138,52 112,65 128,90 192,72 175,40"/>
      <polygon points="192,72 128,90 230,90 285,60"/>
      <polygon points="285,60 230,90 320,90 320,72"/>
      <polygon points="72,28   42,45  75,78  112,65"/>
      <polygon points="112,65  75,78  90,90  128,90"/>
    </g>

    <!-- Hatch lines per shard, each unique angle -->
    <g stroke="#ffffff" stroke-width="0.35" opacity="0.20">
      <g clip-path="url(#c1)">
        <line x1="200" y1="0" x2="235" y2="40"/><line x1="210" y1="0" x2="245" y2="40"/>
        <line x1="220" y1="0" x2="255" y2="40"/><line x1="230" y1="0" x2="265" y2="40"/>
        <line x1="240" y1="0" x2="275" y2="40"/><line x1="250" y1="0" x2="285" y2="40"/>
        <line x1="260" y1="0" x2="295" y2="40"/><line x1="270" y1="0" x2="305" y2="40"/>
        <line x1="280" y1="0" x2="315" y2="40"/><line x1="290" y1="0" x2="325" y2="40"/>
        <line x1="300" y1="0" x2="335" y2="40"/><line x1="310" y1="0" x2="345" y2="40"/>
      </g>
      <g clip-path="url(#c2)">
        <line x1="248" y1="35" x2="295" y2="0"/><line x1="258" y1="40" x2="305" y2="0"/>
        <line x1="268" y1="45" x2="315" y2="0"/><line x1="278" y1="48" x2="325" y2="0"/>
        <line x1="288" y1="50" x2="335" y2="0"/><line x1="298" y1="50" x2="345" y2="0"/>
        <line x1="308" y1="50" x2="355" y2="0"/><line x1="318" y1="50" x2="365" y2="0"/>
      </g>
      <g clip-path="url(#c3)">
        <line x1="148" y1="4"  x2="320" y2="4"/> <line x1="148" y1="11" x2="320" y2="11"/>
        <line x1="148" y1="18" x2="320" y2="18"/><line x1="148" y1="25" x2="320" y2="25"/>
        <line x1="148" y1="32" x2="320" y2="32"/><line x1="148" y1="39" x2="320" y2="39"/>
      </g>
      <g clip-path="url(#c4)">
        <line x1="105" y1="52" x2="195" y2="0"/> <line x1="112" y1="55" x2="202" y2="3"/>
        <line x1="119" y1="57" x2="209" y2="6"/> <line x1="126" y1="58" x2="216" y2="9"/>
        <line x1="133" y1="58" x2="223" y2="12"/><line x1="140" y1="57" x2="230" y2="15"/>
        <line x1="147" y1="55" x2="237" y2="18"/><line x1="154" y1="52" x2="244" y2="21"/>
      </g>
      <g clip-path="url(#c5)">
        <line x1="175" y1="40" x2="250" y2="75"/><line x1="185" y1="37" x2="260" y2="72"/>
        <line x1="195" y1="35" x2="270" y2="70"/><line x1="205" y1="34" x2="280" y2="69"/>
        <line x1="215" y1="34" x2="290" y2="69"/><line x1="225" y1="35" x2="300" y2="70"/>
        <line x1="235" y1="37" x2="310" y2="72"/><line x1="245" y1="40" x2="320" y2="75"/>
      </g>
      <g clip-path="url(#c6)">
        <line x1="248" y1="35" x2="320" y2="50"/><line x1="248" y1="42" x2="320" y2="57"/>
        <line x1="248" y1="49" x2="320" y2="64"/><line x1="248" y1="56" x2="320" y2="71"/>
        <line x1="248" y1="63" x2="320" y2="78"/>
      </g>
      <g clip-path="url(#c7)">
        <line x1="72"  y1="28" x2="145" y2="12"/><line x1="75"  y1="36" x2="148" y2="20"/>
        <line x1="78"  y1="44" x2="151" y2="28"/><line x1="81"  y1="52" x2="154" y2="36"/>
        <line x1="84"  y1="60" x2="157" y2="44"/><line x1="87"  y1="68" x2="160" y2="52"/>
        <line x1="90"  y1="76" x2="163" y2="60"/>
      </g>
      <g clip-path="url(#c8)">
        <line x1="112" y1="65" x2="200" y2="38"/><line x1="115" y1="72" x2="203" y2="45"/>
        <line x1="118" y1="79" x2="206" y2="52"/><line x1="121" y1="86" x2="209" y2="59"/>
        <line x1="124" y1="90" x2="212" y2="63"/><line x1="132" y1="90" x2="220" y2="63"/>
        <line x1="142" y1="90" x2="230" y2="63"/><line x1="152" y1="90" x2="240" y2="63"/>
      </g>
      <g clip-path="url(#c9)">
        <line x1="128" y1="90" x2="220" y2="68"/><line x1="143" y1="90" x2="235" y2="68"/>
        <line x1="158" y1="90" x2="250" y2="68"/><line x1="173" y1="90" x2="265" y2="68"/>
        <line x1="188" y1="90" x2="280" y2="68"/><line x1="203" y1="90" x2="295" y2="68"/>
        <line x1="218" y1="90" x2="310" y2="68"/>
      </g>
      <g clip-path="url(#c10)">
        <line x1="230" y1="90" x2="320" y2="60"/><line x1="245" y1="90" x2="335" y2="60"/>
        <line x1="260" y1="90" x2="350" y2="60"/><line x1="275" y1="90" x2="365" y2="60"/>
        <line x1="290" y1="90" x2="380" y2="60"/>
      </g>
      <g clip-path="url(#c11)">
        <line x1="42"  y1="45" x2="115" y2="25"/><line x1="45"  y1="53" x2="118" y2="33"/>
        <line x1="48"  y1="61" x2="121" y2="41"/><line x1="51"  y1="69" x2="124" y2="49"/>
        <line x1="54"  y1="77" x2="127" y2="57"/><line x1="57"  y1="85" x2="130" y2="65"/>
      </g>
      <g clip-path="url(#c12)">
        <line x1="75"  y1="78" x2="130" y2="60"/><line x1="78"  y1="85" x2="133" y2="67"/>
        <line x1="81"  y1="90" x2="136" y2="72"/><line x1="90"  y1="90" x2="145" y2="72"/>
        <line x1="102" y1="90" x2="157" y2="72"/><line x1="115" y1="90" x2="170" y2="72"/>
      </g>
    </g>

    <!-- Light theme — black -->
    <g stroke="#000000" stroke-width="0.9" fill="none" stroke-linejoin="round" opacity="0.09">
      <polygon points="320,0  200,0  248,35"/>
      <polygon points="320,0  248,35 320,48"/>
      <polygon points="200,0  148,0  175,40 248,35"/>
      <polygon points="148,0  105,12 138,52 175,40"/>
      <polygon points="248,35 175,40 192,72 285,60"/>
      <polygon points="320,48 248,35 285,60 320,72"/>
      <polygon points="105,12  72,28  112,65 138,52"/>
      <polygon points="138,52 112,65 128,90 192,72 175,40"/>
      <polygon points="192,72 128,90 230,90 285,60"/>
      <polygon points="285,60 230,90 320,90 320,72"/>
      <polygon points="72,28   42,45  75,78  112,65"/>
      <polygon points="112,65  75,78  90,90  128,90"/>
    </g>
    <g stroke="#000000" stroke-width="0.35" opacity="0.06">
      <g clip-path="url(#c1)">
        <line x1="200" y1="0" x2="235" y2="40"/><line x1="220" y1="0" x2="255" y2="40"/>
        <line x1="240" y1="0" x2="275" y2="40"/><line x1="260" y1="0" x2="295" y2="40"/>
        <line x1="280" y1="0" x2="315" y2="40"/><line x1="300" y1="0" x2="335" y2="40"/>
      </g>
      <g clip-path="url(#c3)">
        <line x1="148" y1="4"  x2="320" y2="4"/> <line x1="148" y1="18" x2="320" y2="18"/>
        <line x1="148" y1="32" x2="320" y2="32"/>
      </g>
      <g clip-path="url(#c5)">
        <line x1="175" y1="40" x2="250" y2="75"/><line x1="200" y1="34" x2="275" y2="69"/>
        <line x1="225" y1="35" x2="300" y2="70"/>
      </g>
    </g>
  </g>
</svg>
